<svg width="118" height="118" viewBox="0 0 118 118" fill="none" xmlns="http://www.w3.org/2000/svg">
<g clip-path="url(#clip0_0_109)">
<path d="M88.5 -0.000976562H29.5C13.2076 -0.000976562 0 13.2066 0 29.499V88.499C0 104.791 13.2076 117.999 29.5 117.999H88.5C104.792 117.999 118 104.791 118 88.499V29.499C118 13.2066 104.792 -0.000976562 88.5 -0.000976562Z" fill="url(#paint0_linear_0_109)"/>
<path d="M42.0244 80.9541L38.912 86.3679C37.7696 88.3381 35.2529 89.017 33.2662 87.8746C31.296 86.7322 30.6171 84.2157 31.7595 82.2288L34.0609 78.2388L34.2762 77.858C34.6736 77.2951 35.6504 76.3183 37.5874 76.5003C37.5874 76.5003 42.1736 76.997 42.5045 79.3812C42.5045 79.3978 42.5543 80.1758 42.0244 80.9541ZM86.3124 67.146H76.5774C75.9151 67.0964 75.6172 66.8647 75.5178 66.7321V66.7157L65.0873 48.6693L65.0707 48.6859L64.4416 47.7918C63.4152 46.2189 61.7925 50.2256 61.7925 50.2256C59.8555 54.6957 62.0741 59.762 62.8357 61.3017L77.3059 86.3845C78.4482 88.3547 80.9648 89.0334 82.9516 87.891C84.9216 86.7486 85.6005 84.2321 84.4581 82.2454L80.8324 75.9706C80.766 75.8216 80.6336 75.4077 81.3787 75.4077H86.2958C88.5806 75.4077 90.4184 73.5534 90.4184 71.2851C90.435 69.0003 88.5972 67.146 86.3124 67.146ZM67.4051 72.7586C67.4051 72.7586 67.9184 75.4077 65.9152 75.4077H63.8953H29.9052C27.6205 75.4077 25.7828 73.5534 25.7828 71.2851C25.7828 69.0003 27.6371 67.1626 29.9052 67.1626H39.1603C40.6503 67.0798 41.0146 66.219 41.0146 66.219L53.1005 45.2919C53.3159 44.8946 53.1337 44.5136 53.1005 44.4474L49.1105 37.5435C47.9681 35.5733 48.647 33.0402 50.6172 31.8978C52.5874 30.7554 55.1204 31.4343 56.2628 33.4045L58.1172 36.6163L59.9715 33.4211C61.1139 31.4508 63.6304 30.772 65.617 31.9144C67.5873 33.0568 68.2661 35.5733 67.1237 37.5601L50.3191 66.6659C50.2529 66.8481 50.2199 67.1294 50.7662 67.1626H60.8157V67.262C60.7993 67.2454 66.6104 67.3282 67.4051 72.7586Z" fill="white"/>
</g>
<defs>
<linearGradient id="paint0_linear_0_109" x1="58.9917" y1="118.006" x2="58.9917" y2="0.0065069" gradientUnits="userSpaceOnUse">
<stop stop-color="#1D76F2"/>
<stop offset="1" stop-color="#1AC2FB"/>
</linearGradient>
<clipPath id="clip0_0_109">
<rect width="118" height="118" fill="white" transform="translate(0 -0.000976562)"/>
</clipPath>
</defs>
</svg>
